<?xml version="1.0" encoding="utf-8"?>
<svg viewBox="0 0 32 32" width="32" height="32" xmlns="http://www.w3.org/2000/svg">
  <path d="M 29.001 0 L 3.001 0 C 1.35 0 0 1.35 0 3.001 L 0 29.001 C 0 30.65 1.35 32 3.001 32 L 29.001 32 C 30.65 32 32 30.65 32 29.001 L 32 3.001 C 32 1.35 30.65 0 29.001 0 Z M 12 26 L 8 26 L 8 12 L 12 12 L 12 26 Z M 10 10 C 8.895 10 8 9.106 8 8 C 8 6.894 8.895 6 10 6 C 11.106 6 12 6.894 12 8 C 12 9.106 11.106 10 10 10 Z M 26 26 L 22 26 L 22 18 C 22 16.894 21.106 16 20 16 C 18.894 16 18 16.894 18 18 L 18 26 L 14 26 L 14 12 L 18 12 L 18 14.481 C 18.825 13.35 20.089 12 21.5 12 C 23.988 12 26 14.239 26 17.001 L 26 26 Z" style="fill: rgb(171, 171, 171);" transform="matrix(1, 0, 0, 1, 0, 0)"/>
</svg>