<?xml version="1.0" encoding="utf-8"?>
<svg viewBox="0 0.19599996507167816 32 31.211355209350586" width="32" height="31.211355209350586" xmlns="http://www.w3.org/2000/svg">
  <path d="M 16 0.2 C 7.164 0.2 0 7.364 0 16.198 C 0 23.268 4.585 29.265 10.942 31.381 C 11.742 31.528 12.036 31.031 12.036 30.611 C 12.036 30.229 12.019 28.968 12.013 27.633 C 7.561 28.599 6.624 25.745 6.624 25.745 C 5.897 23.895 4.847 23.402 4.847 23.402 C 3.396 22.408 4.958 22.43 4.958 22.43 C 6.564 22.543 7.409 24.079 7.409 24.079 C 8.838 26.523 11.153 25.817 12.066 25.408 C 12.209 24.375 12.623 23.669 13.082 23.268 C 9.527 22.865 5.792 21.493 5.792 15.362 C 5.792 13.615 6.417 12.187 7.439 11.067 C 7.273 10.664 6.726 9.037 7.593 6.833 C 7.593 6.833 8.937 6.404 11.996 8.473 C 13.271 8.119 14.639 7.942 16 7.936 C 17.359 7.942 18.729 8.119 20.006 8.473 C 23.061 6.404 24.403 6.833 24.403 6.833 C 25.271 9.037 24.727 10.666 24.561 11.067 C 25.587 12.187 26.206 13.615 26.206 15.362 C 26.206 21.506 22.462 22.858 18.901 23.255 C 19.475 23.75 19.987 24.725 19.987 26.216 C 19.987 28.356 19.968 30.08 19.968 30.607 C 19.968 31.031 20.256 31.53 21.069 31.375 C 27.422 29.256 32 23.262 32 16.196 C 32 7.36 24.836 0.196 16 0.196 Z" style="fill: rgb(244, 244, 244);" transform="matrix(1, 0, 0, 1, 0, 0)"/>
</svg>