<?xml version="1.0" encoding="utf-8"?>
<svg viewBox="-2.220446049250313e-16 2 64 64" width="64" height="52" xmlns="http://www.w3.org/2000/svg">
  <path d="M 58 8 L 6 8 C 2.7 8 0 10.7 0 14 L 0 54 C 0 57.3 2.7 60 6 60 L 58 60 C 61.3 60 64 57.3 64 54 L 64 14 C 64 10.7 61.3 8 58 8 Z M 24.92 34.4 L 8 47.58 L 8 16.228 L 24.92 34.4 Z M 11.024 16 L 52.976 16 L 32 31.752 L 11.024 16 Z M 25.58 35.108 L 32 42 L 38.42 35.108 L 51.58 52 L 12.42 52 L 25.58 35.108 Z M 39.08 34.4 L 56 16.228 L 56 47.58 L 39.08 34.4 Z" style="fill: rgb(244, 244, 244);"/>
</svg>