<?xml version="1.0" encoding="utf-8"?>
<svg viewBox="0.06200001388788223 0.031000006943941116 63.999996185302734 68.26399993896484" width="63.999996185302734" height="68.26399993896484" xmlns="http://www.w3.org/2000/svg">
  <path d="M 57.662 0.031 L 6.462 0.031 C 2.942 0.031 0.062 2.911 0.062 6.431 L 0.062 61.895 C 0.062 65.415 2.942 68.295 6.462 68.295 L 57.662 68.295 C 61.182 68.295 64.062 65.415 64.062 61.895 L 64.062 6.431 C 64.062 2.911 61.182 0.031 57.662 0.031 Z M 55.526 59.767 L 8.598 59.767 L 8.598 8.567 L 55.526 8.567 L 55.526 59.767 Z M 17.126 38.431 L 46.998 38.431 L 46.998 42.695 L 17.126 42.695 Z M 17.126 46.967 L 46.998 46.967 L 46.998 51.231 L 17.126 51.231 Z M 21.398 19.231 C 21.398 15.699 24.26 12.831 27.798 12.831 C 31.328 12.831 34.198 15.699 34.198 19.231 C 34.198 22.763 31.328 25.631 27.798 25.631 C 24.26 25.631 21.398 22.763 21.398 19.231 Z M 32.062 25.631 L 23.526 25.631 C 20.006 25.631 17.126 27.551 17.126 29.895 L 17.126 34.167 L 38.462 34.167 L 38.462 29.895 C 38.462 27.551 35.582 25.631 32.062 25.631 Z" style="fill: rgb(244, 244, 244);" transform="matrix(1, 0, 0, 1, 0, 0)"/>
</svg>