<?xml version="1.0" encoding="utf-8"?>
<svg viewBox="0.8500000238418579 0 64 71.55899810791016" width="64" height="71.55899810791016" xmlns="http://www.w3.org/2000/svg">
  <path d="M 26.137 6.713 C 26.137 3.008 29.144 0 32.85 0 C 36.556 0 39.563 3.008 39.563 6.713 C 39.563 10.419 36.556 13.427 32.85 13.427 C 29.144 13.427 26.137 10.419 26.137 6.713 Z" style="fill: rgb(244, 244, 244);" transform="matrix(1, 0, 0, 1, -2.220446049250313e-16, 0)"/>
  <path d="M 41.801 22.378 L 64.85 12.437 L 63.19 8.28 L 35.088 17.902 L 30.612 17.902 L 2.51 8.28 L 0.85 12.437 L 23.899 22.378 L 23.899 40.28 L 14.72 69.97 L 18.904 71.559 L 31.892 42.517 L 33.812 42.517 L 46.8 71.559 L 50.985 69.97 L 41.806 40.28 Z" style="fill: rgb(244, 244, 244);" transform="matrix(1, 0, 0, 1, -2.220446049250313e-16, 0)"/>
</svg>