<?xml version="1.0" encoding="utf-8"?>
<svg viewBox="-2.220446049250313e-16 0 64 64" width="64" height="64" xmlns="http://www.w3.org/2000/svg">
  <path d="M 16 12 L 8 4 L 4 4 L 4 8 L 12 16 Z M 20 0 L 24 0 L 24 8 L 20 8 Z M 36 20 L 44 20 L 44 24 L 36 24 Z M 40 8 L 40 4 L 36 4 L 28 12 L 32 16 Z M 0 20 L 8 20 L 8 24 L 0 24 Z M 20 36 L 24 36 L 24 44 L 20 44 Z M 4 36 L 4 40 L 8 40 L 16 32 L 12 28 Z M 63.124 55.124 L 23.368 15.368 C 22.2 14.2 20.292 14.2 19.124 15.368 L 15.368 19.124 C 14.2 20.292 14.2 22.2 15.368 23.368 L 55.124 63.124 C 56.292 64.292 58.2 64.292 59.368 63.124 L 63.124 59.368 C 64.292 58.2 64.292 56.292 63.124 55.124 Z M 30 34 L 18 22 L 22 18 L 34 30 L 30 34 Z" style="fill: rgb(244, 244, 244);" transform="matrix(1, 0, 0, 1, -2.220446049250313e-16, 0)"/>
</svg>